<svg width="20" height="21" viewBox="0 0 20 21" fill="none" xmlns="http://www.w3.org/2000/svg">
<path d="M4 3.5C3.46957 3.5 2.96086 3.71071 2.58579 4.08579C2.21071 4.46086 2 4.96957 2 5.5V9.171C2.285 8.819 2.622 8.511 3 8.258V5.5C3 5.23478 3.10536 4.98043 3.29289 4.79289C3.48043 4.60536 3.73478 4.5 4 4.5H16C16.2652 4.5 16.5196 4.60536 16.7071 4.79289C16.8946 4.98043 17 5.23478 17 5.5V13.5C17 13.7652 16.8946 14.0196 16.7071 14.2071C16.5196 14.3946 16.2652 14.5 16 14.5H9.242C9.16585 14.6129 9.08511 14.7227 9 14.829V15.5H16C16.5304 15.5 17.0391 15.2893 17.4142 14.9142C17.7893 14.5391 18 14.0304 18 13.5V5.5C18 4.96957 17.7893 4.46086 17.4142 4.08579C17.0391 3.71071 16.5304 3.5 16 3.5H4ZM5 7C5 6.86739 5.05268 6.74021 5.14645 6.64645C5.24021 6.55268 5.36739 6.5 5.5 6.5H14.5C14.6326 6.5 14.7598 6.55268 14.8536 6.64645C14.9473 6.74021 15 6.86739 15 7C15 7.13261 14.9473 7.25979 14.8536 7.35355C14.7598 7.44732 14.6326 7.5 14.5 7.5H5.5C5.36739 7.5 5.24021 7.44732 5.14645 7.35355C5.05268 7.25979 5 7.13261 5 7ZM5.5 15.5C4.57174 15.5 3.6815 15.1313 3.02513 14.4749C2.36875 13.8185 2 12.9283 2 12C2 11.0717 2.36875 10.1815 3.02513 9.52513C3.6815 8.86875 4.57174 8.5 5.5 8.5C6.42826 8.5 7.3185 8.86875 7.97487 9.52513C8.63125 10.1815 9 11.0717 9 12C9 12.9283 8.63125 13.8185 7.97487 14.4749C7.3185 15.1313 6.42826 15.5 5.5 15.5ZM3 15.742C3.74005 16.2363 4.61005 16.5001 5.5 16.5C6.425 16.5 7.285 16.22 8 15.742V18.5C8 18.5929 7.97414 18.6839 7.92533 18.7629C7.87651 18.8419 7.80666 18.9057 7.72361 18.9472C7.64055 18.9887 7.54758 19.0063 7.4551 18.998C7.36262 18.9896 7.27428 18.9557 7.2 18.9L5.8 17.85C5.71345 17.7851 5.60819 17.75 5.5 17.75C5.39181 17.75 5.28655 17.7851 5.2 17.85L3.8 18.9C3.72572 18.9557 3.63738 18.9896 3.5449 18.998C3.45242 19.0063 3.35945 18.9887 3.27639 18.9472C3.19334 18.9057 3.12349 18.8419 3.07467 18.7629C3.02586 18.6839 3 18.5929 3 18.5V15.742ZM10.5 10.5C10.3674 10.5 10.2402 10.5527 10.1464 10.6464C10.0527 10.7402 10 10.8674 10 11C10 11.1326 10.0527 11.2598 10.1464 11.3536C10.2402 11.4473 10.3674 11.5 10.5 11.5H14.5C14.6326 11.5 14.7598 11.4473 14.8536 11.3536C14.9473 11.2598 15 11.1326 15 11C15 10.8674 14.9473 10.7402 14.8536 10.6464C14.7598 10.5527 14.6326 10.5 14.5 10.5H10.5Z" fill="#FF577F"/>
</svg>
