<svg width="40" height="41" viewBox="0 0 40 41" fill="none" xmlns="http://www.w3.org/2000/svg">
<path d="M35.2906 16.5656C34.7016 15.95 34.0922 15.3156 33.8625 14.7578C33.65 14.2469 33.6375 13.4 33.625 12.5797C33.6016 11.0547 33.5766 9.32656 32.375 8.125C31.1734 6.92344 29.4453 6.89844 27.9203 6.875C27.1 6.8625 26.2531 6.85 25.7422 6.6375C25.1859 6.40781 24.55 5.79844 23.9344 5.20937C22.8562 4.17344 21.6313 3 20 3C18.3687 3 17.1453 4.17344 16.0656 5.20937C15.45 5.79844 14.8156 6.40781 14.2578 6.6375C13.75 6.85 12.9 6.8625 12.0797 6.875C10.5547 6.89844 8.82656 6.92344 7.625 8.125C6.42344 9.32656 6.40625 11.0547 6.375 12.5797C6.3625 13.4 6.35 14.2469 6.1375 14.7578C5.90781 15.3141 5.29844 15.95 4.70937 16.5656C3.67344 17.6438 2.5 18.8687 2.5 20.5C2.5 22.1313 3.67344 23.3547 4.70937 24.4344C5.29844 25.05 5.90781 25.6844 6.1375 26.2422C6.35 26.7531 6.3625 27.6 6.375 28.4203C6.39844 29.9453 6.42344 31.6734 7.625 32.875C8.82656 34.0766 10.5547 34.1016 12.0797 34.125C12.9 34.1375 13.7469 34.15 14.2578 34.3625C14.8141 34.5922 15.45 35.2016 16.0656 35.7906C17.1438 36.8266 18.3687 38 20 38C21.6313 38 22.8547 36.8266 23.9344 35.7906C24.55 35.2016 25.1844 34.5922 25.7422 34.3625C26.2531 34.15 27.1 34.1375 27.9203 34.125C29.4453 34.1016 31.1734 34.0766 32.375 32.875C33.5766 31.6734 33.6016 29.9453 33.625 28.4203C33.6375 27.6 33.65 26.7531 33.8625 26.2422C34.0922 25.6859 34.7016 25.05 35.2906 24.4344C36.3266 23.3562 37.5 22.1313 37.5 20.5C37.5 18.8687 36.3266 17.6453 35.2906 16.5656ZM27.1344 17.6344L18.3844 26.3844C18.2683 26.5006 18.1304 26.5928 17.9787 26.6557C17.8269 26.7186 17.6643 26.751 17.5 26.751C17.3357 26.751 17.1731 26.7186 17.0213 26.6557C16.8696 26.5928 16.7317 26.5006 16.6156 26.3844L12.8656 22.6344C12.7495 22.5182 12.6574 22.3804 12.5945 22.2286C12.5317 22.0769 12.4993 21.9142 12.4993 21.75C12.4993 21.5858 12.5317 21.4231 12.5945 21.2714C12.6574 21.1196 12.7495 20.9818 12.8656 20.8656C13.1002 20.6311 13.4183 20.4993 13.75 20.4993C13.9142 20.4993 14.0769 20.5317 14.2286 20.5945C14.3804 20.6574 14.5182 20.7495 14.6344 20.8656L17.5 23.7328L25.3656 15.8656C25.4818 15.7495 25.6196 15.6574 25.7714 15.5945C25.9231 15.5317 26.0858 15.4993 26.25 15.4993C26.4142 15.4993 26.5769 15.5317 26.7286 15.5945C26.8804 15.6574 27.0182 15.7495 27.1344 15.8656C27.2505 15.9818 27.3426 16.1196 27.4055 16.2714C27.4683 16.4231 27.5007 16.5858 27.5007 16.75C27.5007 16.9142 27.4683 17.0769 27.4055 17.2286C27.3426 17.3804 27.2505 17.5182 27.1344 17.6344Z" fill="#FF577F"/>
</svg>
